HIERARCHY
ROOT Hips
{
	OFFSET 0.00000 0.00000 0.00000
	CHANNELS 6 Xposition Yposition Zposition Zrotation Yrotation Xrotation 
	JOINT LHipJoint
	{
		OFFSET 0 0 0
		CHANNELS 3 Zrotation Yrotation Xrotation
		JOINT LeftHip
		{
			OFFSET 1.57358 -1.76629 0.73362
			CHANNELS 3 Zrotation Yrotation Xrotation
			JOINT LeftKnee
			{
				OFFSET 2.40600 -6.61045 0.00000
				CHANNELS 3 Zrotation Yrotation Xrotation
				JOINT LeftAnkle
				{
					OFFSET 2.66168 -7.31291 0.00000
					CHANNELS 3 Zrotation Yrotation Xrotation
					JOINT LeftToe
					{
						OFFSET 0.20870 -0.57341 2.12506
						CHANNELS 3 Zrotation Yrotation Xrotation
						End Site
						{
							OFFSET 0.00000 -0.00000 1.10557
						}
					}
				}
			}
		}
	}
	JOINT RHipJoint
	{
		OFFSET 0 0 0
		CHANNELS 3 Zrotation Yrotation Xrotation
		JOINT RightHip
		{
			OFFSET -1.49299 -1.76629 0.73362
			CHANNELS 3 Zrotation Yrotation Xrotation
			JOINT RightKnee
			{
				OFFSET -2.43663 -6.69460 0.00000
				CHANNELS 3 Zrotation Yrotation Xrotation
				JOINT RightAnkle
				{
					OFFSET -2.62959 -7.22474 0.00000
					CHANNELS 3 Zrotation Yrotation Xrotation
					JOINT RightToe
					{
						OFFSET -0.25784 -0.70841 2.21862
						CHANNELS 3 Zrotation Yrotation Xrotation
						End Site
						{
							OFFSET -0.00000 -0.00000 1.16452
						}
					}
				}
			}
		}
	}
	JOINT lowerback
	{
		OFFSET 0 0 0
		CHANNELS 3 Zrotation Yrotation Xrotation
		JOINT Chest
		{
			OFFSET -0.00034 2.12399 -0.25450
			CHANNELS 3 Zrotation Yrotation Xrotation
			JOINT Chest2
			{
				OFFSET 0.05594 2.14379 -0.03318
				CHANNELS 3 Zrotation Yrotation Xrotation
				JOINT lowerneck
				{
					OFFSET 0 0 0
					CHANNELS 3 Zrotation Yrotation Xrotation
					JOINT Neck
					{
						OFFSET -0.09835 1.62725 0.24211
						CHANNELS 3 Zrotation Yrotation Xrotation
						JOINT Head
						{
							OFFSET 0.10849 1.66041 -0.22648
							CHANNELS 3 Zrotation Yrotation Xrotation
							End Site
							{
								OFFSET 0.04385 1.68267 -0.10541
							}
						}
					}
				}
				JOINT LeftCollar
				{
					OFFSET 0 0 0
					CHANNELS 3 Zrotation Yrotation Xrotation
					JOINT LeftShoulder
					{
						OFFSET 3.29108 0.79398 -0.68179
CHANNELS 3 Zrotation Xrotation Yrotation
						JOINT LeftElbow
						{
OFFSET 0 -5.153100 -0.000000
CHANNELS 3 Zrotation Xrotation Yrotation
							JOINT LeftWrist
							{
OFFSET 0 -3.751380 -0.000000
CHANNELS 3 Zrotation Xrotation Yrotation
								JOINT lhand
								{
									OFFSET 0 0 0
CHANNELS 3 Zrotation Xrotation Yrotation
									JOINT LFingers
									{
OFFSET 0 -0.529170 0.000000
CHANNELS 3 Zrotation Xrotation Yrotation
										End Site
										{
OFFSET 0 -0.426630 0.000000
										}
									}
								}
								JOINT LThumb
								{
OFFSET 0 0.000000 0.000000
CHANNELS 3 Zrotation Xrotation Yrotation
									End Site
									{
OFFSET 0 -0.433150 0.433150
									}
								}
							}
						}
					}
				}
				JOINT RightCollar
				{
					OFFSET 0 0 0
					CHANNELS 3 Zrotation Yrotation Xrotation
					JOINT RightShoulder
					{
						OFFSET -3.07414 1.06285 -0.44338
CHANNELS 3 Zrotation Xrotation Yrotation
						JOINT RightElbow
						{
OFFSET 0 -5.296130 0.000000
CHANNELS 3 Zrotation Xrotation Yrotation
							JOINT RightWrist
							{
OFFSET 0 -3.761440 -0.000000
CHANNELS 3 Zrotation Xrotation Yrotation
								JOINT rhand
								{
									OFFSET 0 0 0
CHANNELS 3 Zrotation Xrotation Yrotation
									JOINT RFingers
									{
OFFSET 0 -0.747320 0.000000
CHANNELS 3 Zrotation Xrotation Yrotation
										End Site
										{
OFFSET 0 -0.602510 0.000000
										}
									}
								}
								JOINT RThumb
								{
OFFSET 0 0.000000 0.000000
CHANNELS 3 Zrotation Xrotation Yrotation
									End Site
									{
OFFSET 0 -0.611710 0.611710
									}
								}
							}
						}
					}
				}
			}
		}
	}
}
MOTION
Frames: 12
Frame Time: 0.008333333333333333
4.075039 16.300297 5.199118 17.175763 -47.955938 -5.760240 0.000000 0.000000 0.000000 -13.675062 7.070039 -15.242997 17.771911 19.875243 83.471292 -0.166969 8.082213 0.825501 0.249589 -3.213895 -8.874765 0.000000 0.000000 0.000000 34.493821 5.348031 -20.905465 -4.336145 -12.593983 37.868194 -0.578015 1.318788 -13.930674 -2.370640 -9.585414 27.655230 -5.916721 -1.062567 12.141714 -0.065738 -2.239871 1.021035 3.639446 -0.973537 -5.512762 -11.238053 -1.903695 -15.974157 5.516027 -0.943702 15.424747 3.557425 -0.605380 7.458284 0.000000 0.000000 0.000000 4.708347 16.951740 -45.861564 111.739583 -58.135907 78.709110 17.697836 -29.722917 -7.498283 0.000000 0.000000 0.000000 -7.125000 0.000000 0.000000 -7.786770 37.740780 -1.398351 0.000000 0.000000 0.000000 -3.199294 23.762286 33.031502 -130.050674 -52.974965 -93.866307 -19.531110 -15.859032 -26.558295 0.000000 0.000000 0.000000 7.125000 0.000000 0.000000 6.249677 2.184395 6.043418
4.026217 16.283391 5.302253 16.710889 -48.194814 -5.436620 0.000000 0.000000 0.000000 -13.000385 7.078416 -15.883991 17.976933 19.898330 84.074577 -0.168907 7.956939 0.491802 0.253767 -3.240686 -8.949494 0.000000 0.000000 0.000000 34.781562 5.614193 -20.363794 -4.372734 -12.640048 38.036281 -0.617146 1.189465 -14.457722 -2.266320 -9.391742 27.035190 -5.638564 -0.990400 12.121341 0.038087 -2.097712 1.036606 3.568937 -0.909511 -5.506086 -11.181758 -1.901886 -15.991472 5.511182 -0.951606 15.422141 3.545774 -0.605940 7.460653 0.000000 0.000000 0.000000 4.546440 17.273120 -45.712493 111.563548 -58.167522 78.559629 17.857008 -29.703750 -7.329549 0.000000 0.000000 0.000000 -7.125000 0.000000 0.000000 -7.627211 37.576439 -1.401452 0.000000 0.000000 0.000000 -3.292781 23.499957 33.184105 -130.007322 -52.992495 -93.831720 -19.528031 -15.765695 -26.451584 0.000000 0.000000 0.000000 7.125000 0.000000 0.000000 6.240632 2.294185 6.022055
3.978785 16.265384 5.400992 16.243620 -48.376636 -5.092634 0.000000 0.000000 0.000000 -12.303388 7.024667 -16.570706 18.181459 19.919704 84.675973 -0.168565 7.794058 0.178473 0.255910 -3.254291 -8.987455 0.000000 0.000000 0.000000 35.073165 5.873014 -19.867635 -4.408836 -12.685295 38.201708 -0.654860 1.016538 -14.975105 -2.160484 -9.189534 26.392315 -5.395893 -0.930624 12.130522 0.151518 -1.978158 1.039766 3.533455 -0.854512 -5.525032 -11.133469 -1.904854 -16.016259 5.507503 -0.963472 15.422388 3.535444 -0.608727 7.465683 0.000000 0.000000 0.000000 4.392377 17.589777 -45.569504 111.388581 -58.198714 78.411012 18.015043 -29.675555 -7.160128 0.000000 0.000000 0.000000 -7.125000 0.000000 0.000000 -7.469126 37.410955 -1.403977 0.000000 0.000000 0.000000 -3.383561 23.229784 33.337304 -129.967879 -53.008436 -93.800247 -19.537806 -15.657825 -26.357161 0.000000 0.000000 0.000000 7.125000 0.000000 0.000000 6.225102 2.389180 5.996087
3.937759 16.242297 5.479469 15.765307 -48.295510 -4.654788 0.000000 0.000000 0.000000 -11.503524 6.684593 -17.468128 18.383703 19.933185 85.268663 -0.157711 7.457861 -0.040978 0.248674 -3.207127 -8.855956 0.000000 0.000000 0.000000 35.382572 6.097999 -19.581230 -4.442690 -12.726773 38.354871 -0.686044 0.642654 -15.447947 -2.047657 -8.947987 25.644202 -5.316770 -0.927953 12.275911 0.309226 -1.962782 0.985733 3.659397 -0.841116 -5.662065 -11.122076 -1.929836 -16.075483 5.509205 -0.993601 15.435784 3.531201 -0.621778 7.482977 0.000000 0.000000 0.000000 4.274468 17.884668 -45.454545 111.218534 -58.227960 78.266377 18.167840 -29.605758 -6.987540 0.000000 0.000000 0.000000 -7.125000 0.000000 0.000000 -7.317836 37.240197 -1.403848 0.000000 0.000000 0.000000 -3.461866 22.923457 33.493245 -129.946451 -53.017050 -93.783126 -19.606829 -15.482975 -26.319366 0.000000 0.000000 0.000000 7.125000 0.000000 0.000000 6.179683 2.415993 5.948902
3.896734 16.219211 5.557946 15.286995 -48.214384 -4.216942 0.000000 0.000000 0.000000 -10.703659 6.344520 -18.365550 18.585946 19.946667 85.861352 -0.146857 7.121664 -0.260428 0.241438 -3.159964 -8.724458 0.000000 0.000000 0.000000 35.691978 6.322985 -19.294824 -4.476545 -12.768252 38.508035 -0.717228 0.268769 -15.920789 -1.934831 -8.706440 24.896088 -5.237647 -0.925283 12.421300 0.466933 -1.947405 0.931699 3.785339 -0.827721 -5.799098 -11.110684 -1.954817 -16.134707 5.510906 -1.023729 15.449179 3.526958 -0.634828 7.500270 0.000000 0.000000 0.000000 4.156559 18.179559 -45.339586 111.048487 -58.257206 78.121742 18.320637 -29.535960 -6.814951 0.000000 0.000000 0.000000 -7.125000 0.000000 0.000000 -7.166547 37.069439 -1.403719 0.000000 0.000000 0.000000 -3.540170 22.617131 33.649186 -129.925023 -53.025665 -93.766005 -19.675851 -15.308125 -26.281570 0.000000 0.000000 0.000000 7.125000 0.000000 0.000000 6.134264 2.442805 5.901717
3.855708 16.196124 5.636422 14.808683 -48.133259 -3.779096 0.000000 0.000000 0.000000 -9.903795 6.004447 -19.262972 18.788190 19.960148 86.454041 -0.136003 6.785467 -0.479879 0.234202 -3.112800 -8.592960 0.000000 0.000000 0.000000 36.001384 6.547970 -19.008418 -4.510399 -12.809730 38.661198 -0.748412 -0.105116 -16.393631 -1.822004 -8.464894 24.147974 -5.158524 -0.922613 12.566688 0.624640 -1.932029 0.877665 3.911280 -0.814326 -5.936131 -11.099291 -1.979799 -16.193930 5.512607 -1.053858 15.462574 3.522716 -0.647879 7.517563 0.000000 0.000000 0.000000 4.038650 18.474450 -45.224628 110.878439 -58.286452 77.977107 18.473434 -29.466162 -6.642362 0.000000 0.000000 0.000000 -7.125000 0.000000 0.000000 -7.015257 36.898680 -1.403589 0.000000 0.000000 0.000000 -3.618475 22.310804 33.805128 -129.903595 -53.034279 -93.748884 -19.744874 -15.133275 -26.243775 0.000000 0.000000 0.000000 7.125000 0.000000 0.000000 6.088844 2.469617 5.854532
3.814682 16.173038 5.714899 14.330371 -48.052133 -3.341249 0.000000 0.000000 0.000000 -9.103930 5.664374 -20.160394 18.990433 19.973630 87.046731 -0.125148 6.449271 -0.699330 0.226966 -3.065637 -8.461462 0.000000 0.000000 0.000000 36.310790 6.772956 -18.722012 -4.544254 -12.851208 38.814361 -0.779596 -0.479000 -16.866473 -1.709177 -8.223347 23.399860 -5.079401 -0.919942 12.712077 0.782348 -1.916652 0.823632 4.037222 -0.800930 -6.073164 -11.087899 -2.004781 -16.253154 5.514309 -1.083987 15.475970 3.518473 -0.660930 7.534857 0.000000 0.000000 0.000000 3.920741 18.769341 -45.109669 110.708392 -58.315697 77.832472 18.626232 -29.396364 -6.469774 0.000000 0.000000 0.000000 -7.125000 0.000000 0.000000 -6.863967 36.727922 -1.403460 0.000000 0.000000 0.000000 -3.696779 22.004477 33.961069 -129.882167 -53.042893 -93.731763 -19.813896 -14.958426 -26.205979 0.000000 0.000000 0.000000 7.125000 0.000000 0.000000 6.043425 2.496429 5.807347
3.771271 16.153914 5.799942 13.943314 -47.984174 -2.959859 0.000000 0.000000 0.000000 -8.451143 5.326570 -21.035550 19.160665 19.982031 87.545204 -0.116736 6.183329 -0.919575 0.226111 -3.060322 -8.446642 0.000000 0.000000 0.000000 36.523170 6.976066 -18.434178 -4.575378 -12.888885 38.954208 -0.817369 -0.709252 -17.341758 -1.679692 -8.162744 23.210531 -4.999656 -0.933525 12.772017 0.914229 -1.918900 0.778007 4.135553 -0.798663 -6.152739 -11.096308 -2.013866 -16.291229 5.518348 -1.090328 15.476141 3.520624 -0.663567 7.542174 0.000000 0.000000 0.000000 3.765994 19.075544 -44.924052 110.580090 -58.337479 77.723316 18.723472 -29.245667 -6.388636 0.000000 0.000000 0.000000 -7.125000 0.000000 0.000000 -6.771564 36.649099 -1.398700 0.000000 0.000000 0.000000 -3.769474 21.679974 34.154010 -129.836882 -53.060988 -93.695543 -19.805925 -14.667716 -26.203905 0.000000 0.000000 0.000000 7.125000 0.000000 0.000000 6.048011 2.499938 5.811410
3.725788 16.138236 5.890694 13.635609 -47.927663 -2.627560 0.000000 0.000000 0.000000 -7.926248 4.990739 -21.891343 19.303060 19.986015 87.961752 -0.110448 5.978480 -1.140512 0.230806 -3.091398 -8.533281 0.000000 0.000000 0.000000 36.651179 7.160155 -18.145102 -4.604129 -12.923256 39.082476 -0.860871 -0.814606 -17.819165 -1.722678 -8.259483 23.507102 -4.919371 -0.961242 12.757652 1.023653 -1.936473 0.739695 4.209873 -0.806071 -6.182351 -11.121936 -2.009128 -16.310912 5.524422 -1.075985 15.464813 3.528334 -0.657150 7.540818 0.000000 0.000000 0.000000 3.579213 19.391583 -44.676992 110.488089 -58.352769 77.645012 18.772401 -29.024623 -6.387021 0.000000 0.000000 0.000000 -7.125000 0.000000 0.000000 -6.730366 36.650219 -1.389914 0.000000 0.000000 0.000000 -3.837290 21.339663 34.379125 -129.770853 -53.087326 -93.642716 -19.731001 -14.276258 -26.232892 0.000000 0.000000 0.000000 7.125000 0.000000 0.000000 6.096079 2.483183 5.860038
3.680304 16.122558 5.981446 13.327904 -47.871153 -2.295261 0.000000 0.000000 0.000000 -7.401354 4.654908 -22.747137 19.445456 19.989999 88.378299 -0.104159 5.773631 -1.361449 0.235501 -3.122475 -8.619920 0.000000 0.000000 0.000000 36.779189 7.344244 -17.856025 -4.632879 -12.957627 39.210744 -0.904374 -0.919959 -18.296573 -1.765664 -8.356223 23.803672 -4.839085 -0.988959 12.743288 1.133077 -1.954046 0.701383 4.284193 -0.813479 -6.211963 -11.147563 -2.004390 -16.330596 5.530495 -1.061642 15.453485 3.536044 -0.650732 7.539461 0.000000 0.000000 0.000000 3.392432 19.707623 -44.429932 110.396087 -58.368060 77.566707 18.821331 -28.803578 -6.385406 0.000000 0.000000 0.000000 -7.125000 0.000000 0.000000 -6.689167 36.651339 -1.381127 0.000000 0.000000 0.000000 -3.905107 20.999353 34.604240 -129.704824 -53.113665 -93.589888 -19.656078 -13.884800 -26.261879 0.000000 0.000000 0.000000 7.125000 0.000000 0.000000 6.144147 2.466428 5.908666
3.634820 16.106880 6.072199 13.020199 -47.814643 -1.962962 0.000000 0.000000 0.000000 -6.876460 4.319077 -23.602930 19.587851 19.993983 88.794846 -0.097871 5.568781 -1.582386 0.240196 -3.153551 -8.706558 0.000000 0.000000 0.000000 36.907198 7.528333 -17.566949 -4.661629 -12.991998 39.339012 -0.947876 -1.025313 -18.773981 -1.808649 -8.452962 24.100243 -4.758799 -1.016675 12.728923 1.242501 -1.971620 0.663070 4.358514 -0.820888 -6.241574 -11.173191 -1.999652 -16.350280 5.536568 -1.047299 15.442157 3.543753 -0.644314 7.538104 0.000000 0.000000 0.000000 3.205652 20.023662 -44.182872 110.304086 -58.383350 77.488403 18.870260 -28.582534 -6.383790 0.000000 0.000000 0.000000 -7.125000 0.000000 0.000000 -6.647969 36.652459 -1.372340 0.000000 0.000000 0.000000 -3.972924 20.659043 34.829354 -129.638795 -53.140003 -93.537061 -19.581155 -13.493342 -26.290867 0.000000 0.000000 0.000000 7.125000 0.000000 0.000000 6.192215 2.449673 5.957294
3.589336 16.091202 6.162951 12.712494 -47.758133 -1.630663 0.000000 0.000000 0.000000 -6.351565 3.983247 -24.458723 19.730246 19.997968 89.211393 -0.091582 5.363932 -1.803322 0.244890 -3.184627 -8.793197 0.000000 0.000000 0.000000 37.035208 7.712421 -17.277873 -4.690380 -13.026370 39.467279 -0.991379 -1.130666 -19.251388 -1.851635 -8.549701 24.396814 -4.678513 -1.044392 12.714559 1.351925 -1.989193 0.624758 4.432834 -0.828296 -6.271186 -11.198819 -1.994914 -16.369964 5.542641 -1.032957 15.430829 3.551463 -0.637896 7.536747 0.000000 0.000000 0.000000 3.018871 20.339701 -43.935813 110.212085 -58.398641 77.410098 18.919190 -28.361489 -6.382175 0.000000 0.000000 0.000000 -7.125000 0.000000 0.000000 -6.606771 36.653578 -1.363554 0.000000 0.000000 0.000000 -4.040740 20.318733 35.054469 -129.572766 -53.166342 -93.484233 -19.506231 -13.101884 -26.319854 0.000000 0.000000 0.000000 7.125000 0.000000 0.000000 6.240283 2.432918 6.005923
